<svg class="plot-d6a7b5" fill="currentColor" font-family="system-ui, sans-serif" font-size="10" text-anchor="middle" width="640" height="140" viewBox="0 0 640 140" xmlns="http://www.w3.org/2000/svg" xmlns:xlink="http://www.w3.org/1999/xlink"><style>:where(.plot-d6a7b5) {
  --plot-background: white;
  display: block;
  height: auto;
  height: intrinsic;
  max-width: 100%;
}
:where(.plot-d6a7b5 text),
:where(.plot-d6a7b5 tspan) {
  white-space: pre;
}</style><g aria-label="y-axis tick" aria-hidden="true" fill="none" stroke="currentColor" transform="translate(0,9.5)"><path transform="translate(80,24)" d="M0,0L-6,0"/><path transform="translate(80,45)" d="M0,0L-6,0"/><path transform="translate(80,66)" d="M0,0L-6,0"/><path transform="translate(80,87)" d="M0,0L-6,0"/></g><g aria-label="y-axis tick label" text-anchor="end" transform="translate(-9,9.5)"><text y="0.32em" transform="translate(80,24)">A22</text><text y="0.32em" transform="translate(80,45)">L20</text><text y="0.32em" transform="translate(80,66)">IN23</text><text y="0.32em" transform="translate(80,87)">S10-Rev23</text></g><g aria-label="y-axis label" transform="translate(-77,0)"><text y="0.71em" transform="translate(80,65) rotate(-90)">plan</text></g><g aria-label="x-axis tick" aria-hidden="true" fill="none" stroke="currentColor"><path transform="translate(102,110)" d="M0,0L0,6"/><path transform="translate(133,110)" d="M0,0L0,6"/><path transform="translate(164,110)" d="M0,0L0,6"/><path transform="translate(195,110)" d="M0,0L0,6"/><path transform="translate(226,110)" d="M0,0L0,6"/><path transform="translate(257,110)" d="M0,0L0,6"/><path transform="translate(288,110)" d="M0,0L0,6"/><path transform="translate(319,110)" d="M0,0L0,6"/><path transform="translate(350,110)" d="M0,0L0,6"/><path transform="translate(381,110)" d="M0,0L0,6"/><path transform="translate(412,110)" d="M0,0L0,6"/><path transform="translate(443,110)" d="M0,0L0,6"/><path transform="translate(474,110)" d="M0,0L0,6"/><path transform="translate(505,110)" d="M0,0L0,6"/><path transform="translate(536,110)" d="M0,0L0,6"/><path transform="translate(567,110)" d="M0,0L0,6"/><path transform="translate(598,110)" d="M0,0L0,6"/></g><g aria-label="x-axis tick label" transform="translate(0,9)"><text y="0.71em" transform="translate(102,110)">19</text><text y="0.71em" transform="translate(133,110)">19</text><text y="0.71em" transform="translate(164,110)">19.5</text><text y="0.71em" transform="translate(195,110)">20</text><text y="0.71em" transform="translate(226,110)">20</text><text y="0.71em" transform="translate(257,110)">20.75</text><text y="0.71em" transform="translate(288,110)">21</text><text y="0.71em" transform="translate(319,110)">21.5</text><text y="0.71em" transform="translate(350,110)">22</text><text y="0.71em" transform="translate(381,110)">22</text><text y="0.71em" transform="translate(412,110)">22.25</text><text y="0.71em" transform="translate(443,110)">23</text><text y="0.71em" transform="translate(474,110)">24</text><text y="0.71em" transform="translate(505,110)">24</text><text y="0.71em" transform="translate(536,110)">25</text><text y="0.71em" transform="translate(567,110)">28</text></g><g aria-label="x-axis label" transform="translate(0,27)"><text transform="translate(350,110)">edad</text></g><g aria-label="rule" stroke="currentColor" transform="translate(0,9.5)"><line x1="102" x2="288" y1="24" y2="24"/><line x1="350" x2="350" y1="66" y2="66"/><line x1="195" x2="536" y1="45" y2="45"/><line x1="474" x2="474" y1="87" y2="87"/></g><g aria-label="bar" fill="#ccc"><rect x="133" width="124" y="24" height="19"/><rect x="381" width="0" y="66" height="19"/><rect x="226" width="186" y="45" height="19"/><rect x="505" width="0" y="87" height="19"/></g><g aria-label="tick" stroke="currentColor" stroke-width="2"><line x1="164" x2="164" y1="24" y2="43"/><line x1="381" x2="381" y1="66" y2="85"/><line x1="319" x2="319" y1="45" y2="64"/><line x1="505" x2="505" y1="87" y2="106"/></g><g aria-label="dot" fill="none" stroke="currentColor" stroke-width="1.5" transform="translate(0,9.5)"><circle cx="598" cy="24" r="3"/><circle cx="598" cy="24" r="3"/><circle cx="598" cy="24" r="3"/><circle cx="598" cy="24" r="3"/><circle cx="598" cy="24" r="3"/><circle cx="536" cy="24" r="3"/><circle cx="598" cy="66" r="3"/><circle cx="598" cy="66" r="3"/><circle cx="598" cy="66" r="3"/><circle cx="598" cy="66" r="3"/><circle cx="598" cy="45" r="3"/><circle cx="598" cy="45" r="3"/><circle cx="598" cy="45" r="3"/><circle cx="598" cy="45" r="3"/><circle cx="598" cy="45" r="3"/><circle cx="598" cy="45" r="3"/><circle cx="598" cy="45" r="3"/><circle cx="598" cy="45" r="3"/><circle cx="350" cy="87" r="3"/><circle cx="598" cy="87" r="3"/><circle cx="598" cy="87" r="3"/><circle cx="598" cy="87" r="3"/><circle cx="598" cy="87" r="3"/><circle cx="598" cy="87" r="3"/><circle cx="443" cy="87" r="3"/><circle cx="567" cy="87" r="3"/><circle cx="598" cy="87" r="3"/><circle cx="598" cy="87" r="3"/></g><text x="640" y="20" dy="-1em" text-anchor="end" font-family="initial">⚠️<title>1 warning. Please check the console.</title></text></svg>