<svg xmlns="http://www.w3.org/2000/svg" width="805" height="600"><rect width="805" height="600" x="0" y="0" fill="#FFFFFF" id="background"/><g transform="translate(80,10)" id="viz"><g id="axis"><g transform="translate(0,540)" fill="none" font-size="10" font-family="sans-serif" text-anchor="middle"><path class="domain" stroke="currentColor" d="M0,6V0H675V6"/><g class="tick" opacity="1" transform="translate(0,0)"><line stroke="currentColor" y2="6"/><text fill="currentColor" y="9" dy="0.71em">19</text></g><g class="tick" opacity="1" transform="translate(75,0)"><line stroke="currentColor" y2="6"/><text fill="currentColor" y="9" dy="0.71em">20</text></g><g class="tick" opacity="1" transform="translate(150,0)"><line stroke="currentColor" y2="6"/><text fill="currentColor" y="9" dy="0.71em">21</text></g><g class="tick" opacity="1" transform="translate(225,0)"><line stroke="currentColor" y2="6"/><text fill="currentColor" y="9" dy="0.71em">22</text></g><g class="tick" opacity="1" transform="translate(300,0)"><line stroke="currentColor" y2="6"/><text fill="currentColor" y="9" dy="0.71em">23</text></g><g class="tick" opacity="1" transform="translate(375,0)"><line stroke="currentColor" y2="6"/><text fill="currentColor" y="9" dy="0.71em">24</text></g><g class="tick" opacity="1" transform="translate(450,0)"><line stroke="currentColor" y2="6"/><text fill="currentColor" y="9" dy="0.71em">25</text></g><g class="tick" opacity="1" transform="translate(525,0)"><line stroke="currentColor" y2="6"/><text fill="currentColor" y="9" dy="0.71em">26</text></g><g class="tick" opacity="1" transform="translate(600,0)"><line stroke="currentColor" y2="6"/><text fill="currentColor" y="9" dy="0.71em">27</text></g><g class="tick" opacity="1" transform="translate(675,0)"><line stroke="currentColor" y2="6"/><text fill="currentColor" y="9" dy="0.71em">28</text></g><text x="675" dy="-5" text-anchor="end" style="font-family: Arial, sans-serif; font-size: 12px; fill: rgb(123, 123, 123); font-weight: bold;">edad</text></g><g fill="none" font-size="10" font-family="sans-serif" text-anchor="end"><path class="domain" stroke="currentColor" d="M0,0V540"/><g class="tick" opacity="1" transform="translate(0,68)"><line stroke="currentColor" x2="675" style="stroke: rgb(204, 204, 204);"/><text fill="currentColor" x="-3" dy="0.32em">A22</text></g><g class="tick" opacity="1" transform="translate(0,203)"><line stroke="currentColor" x2="675" style="stroke: rgb(204, 204, 204);"/><text fill="currentColor" x="-3" dy="0.32em">IN23</text></g><g class="tick" opacity="1" transform="translate(0,338)"><line stroke="currentColor" x2="675" style="stroke: rgb(204, 204, 204);"/><text fill="currentColor" x="-3" dy="0.32em">L20</text></g><g class="tick" opacity="1" transform="translate(0,473)"><line stroke="currentColor" x2="675" style="stroke: rgb(204, 204, 204);"/><text fill="currentColor" x="-3" dy="0.32em">S10-Rev23</text></g><text x="4" text-anchor="start" dominant-baseline="hanging" style="font-family: Arial, sans-serif; font-size: 12px; fill: rgb(123, 123, 123); font-weight: bold;">plan</text></g></g><g id="visualization"><g id="A22"><g id="circles"><circle id="" cx="-6.465470090853241" cy="64.2928634589831" r="5.25" style="fill: rgb(31, 119, 180);"/><circle id="" cx="150" cy="67.5" r="5.25" style="fill: rgb(255, 127, 14);"/><circle id="" cx="6.010071587257743" cy="63.504559274854884" r="5.25" style="fill: rgb(255, 127, 14);"/><circle id="" cx="75" cy="67.5" r="5.25" style="fill: rgb(255, 127, 14);"/><circle id="" cx="0.4553985035954973" cy="74.70257726616201" r="5.25" style="fill: rgb(31, 119, 180);"/><circle id="" cx="450" cy="67.5" r="5.25" style="fill: rgb(31, 119, 180);"/></g><g id="labels"><g id="" transform="translate(-6.465470090853241,64.2928634589831)"><text x="0" y="0" text-anchor="middle" dominant-baseline="text-before-edge" transform="translate(0,0)"/></g><g id="" transform="translate(150,67.5)"><text x="0" y="0" text-anchor="middle" dominant-baseline="text-before-edge" transform="translate(0,0)"/></g><g id="" transform="translate(6.010071587257743,63.504559274854884)"><text x="0" y="0" text-anchor="middle" dominant-baseline="text-before-edge" transform="translate(0,0)"/></g><g id="" transform="translate(75,67.5)"><text x="0" y="0" text-anchor="middle" dominant-baseline="text-before-edge" transform="translate(0,0)"/></g><g id="" transform="translate(0.4553985035954973,74.70257726616201)"><text x="0" y="0" text-anchor="middle" dominant-baseline="text-before-edge" transform="translate(0,0)"/></g><g id="" transform="translate(450,67.5)"><text x="0" y="0" text-anchor="middle" dominant-baseline="text-before-edge" transform="translate(0,0)"/></g></g></g><g id="IN23"><g id="circles"><circle id="" cx="218.10580795100768" cy="196.55089650563409" r="5.25" style="fill: rgb(255, 127, 14);"/><circle id="" cx="219.40558539163956" cy="208.98313604125664" r="5.25" style="fill: rgb(255, 127, 14);"/><circle id="" cx="230.59439519318542" cy="196.01686601407337" r="5.25" style="fill: rgb(255, 127, 14);"/><circle id="" cx="231.89421146416757" cy="208.44910143903576" r="5.25" style="fill: rgb(31, 119, 180);"/></g><g id="labels"><g id="" transform="translate(218.10580795100768,196.55089650563409)"><text x="0" y="0" text-anchor="middle" dominant-baseline="text-before-edge" transform="translate(0,0)"/></g><g id="" transform="translate(219.40558539163956,208.98313604125664)"><text x="0" y="0" text-anchor="middle" dominant-baseline="text-before-edge" transform="translate(0,0)"/></g><g id="" transform="translate(230.59439519318542,196.01686601407337)"><text x="0" y="0" text-anchor="middle" dominant-baseline="text-before-edge" transform="translate(0,0)"/></g><g id="" transform="translate(231.89421146416757,208.44910143903576)"><text x="0" y="0" text-anchor="middle" dominant-baseline="text-before-edge" transform="translate(0,0)"/></g></g></g><g id="L20"><g id="circles"><circle id="" cx="300" cy="337.5" r="5.25" style="fill: rgb(31, 119, 180);"/><circle id="" cx="230.9952681678447" cy="339.26614257511335" r="5.25" style="fill: rgb(255, 127, 14);"/><circle id="" cx="67.92913240571754" cy="336.0540194494495" r="5.25" style="fill: rgb(255, 127, 14);"/><circle id="" cx="219.0047318321553" cy="335.73385742488665" r="5.25" style="fill: rgb(255, 127, 14);"/><circle id="" cx="79.78763324997375" cy="332.0997152912223" r="5.25" style="fill: rgb(255, 127, 14);"/><circle id="" cx="77.28323434430871" cy="344.3462652593277" r="5.25" style="fill: rgb(255, 127, 14);"/><circle id="" cx="150" cy="337.5" r="5.25" style="fill: rgb(255, 127, 14);"/><circle id="" cx="450" cy="337.5" r="5.25" style="fill: rgb(255, 127, 14);"/></g><g id="labels"><g id="" transform="translate(300,337.5)"><text x="0" y="0" text-anchor="middle" dominant-baseline="text-before-edge" transform="translate(0,0)"/></g><g id="" transform="translate(230.9952681678447,339.26614257511335)"><text x="0" y="0" text-anchor="middle" dominant-baseline="text-before-edge" transform="translate(0,0)"/></g><g id="" transform="translate(67.92913240571754,336.0540194494495)"><text x="0" y="0" text-anchor="middle" dominant-baseline="text-before-edge" transform="translate(0,0)"/></g><g id="" transform="translate(219.0047318321553,335.73385742488665)"><text x="0" y="0" text-anchor="middle" dominant-baseline="text-before-edge" transform="translate(0,0)"/></g><g id="" transform="translate(79.78763324997375,332.0997152912223)"><text x="0" y="0" text-anchor="middle" dominant-baseline="text-before-edge" transform="translate(0,0)"/></g><g id="" transform="translate(77.28323434430871,344.3462652593277)"><text x="0" y="0" text-anchor="middle" dominant-baseline="text-before-edge" transform="translate(0,0)"/></g><g id="" transform="translate(150,337.5)"><text x="0" y="0" text-anchor="middle" dominant-baseline="text-before-edge" transform="translate(0,0)"/></g><g id="" transform="translate(450,337.5)"><text x="0" y="0" text-anchor="middle" dominant-baseline="text-before-edge" transform="translate(0,0)"/></g></g></g><g id="S10-Rev23"><g id="circles"><circle id="" cx="225" cy="472.5" r="5.25" style="fill: rgb(255, 127, 14);"/><circle id="" cx="385.7216069624162" cy="466.0732830996275" r="5.25" style="fill: rgb(255, 127, 14);"/><circle id="" cx="374.79528060101717" cy="460.00201633785093" r="5.25" style="fill: rgb(255, 127, 14);"/><circle id="" cx="385.92620163954314" cy="478.5714034881943" r="5.25" style="fill: rgb(255, 127, 14);"/><circle id="" cx="364.07331412587115" cy="466.42802436304726" r="5.25" style="fill: rgb(255, 127, 14);"/><circle id="" cx="375.20510257723635" cy="484.9988589952873" r="5.25" style="fill: rgb(255, 127, 14);"/><circle id="" cx="300" cy="472.5" r="5.25" style="fill: rgb(255, 127, 14);"/><circle id="" cx="675" cy="472.5" r="5.25" style="fill: rgb(255, 127, 14);"/><circle id="" cx="374.9999569044595" cy="472.49990795753854" r="5.25" style="fill: rgb(255, 127, 14);"/><circle id="" cx="364.2785371894563" cy="478.9265057584546" r="5.25" style="fill: rgb(255, 127, 14);"/></g><g id="labels"><g id="" transform="translate(225,472.5)"><text x="0" y="0" text-anchor="middle" dominant-baseline="text-before-edge" transform="translate(0,0)"/></g><g id="" transform="translate(385.7216069624162,466.0732830996275)"><text x="0" y="0" text-anchor="middle" dominant-baseline="text-before-edge" transform="translate(0,0)"/></g><g id="" transform="translate(374.79528060101717,460.00201633785093)"><text x="0" y="0" text-anchor="middle" dominant-baseline="text-before-edge" transform="translate(0,0)"/></g><g id="" transform="translate(385.92620163954314,478.5714034881943)"><text x="0" y="0" text-anchor="middle" dominant-baseline="text-before-edge" transform="translate(0,0)"/></g><g id="" transform="translate(364.07331412587115,466.42802436304726)"><text x="0" y="0" text-anchor="middle" dominant-baseline="text-before-edge" transform="translate(0,0)"/></g><g id="" transform="translate(375.20510257723635,484.9988589952873)"><text x="0" y="0" text-anchor="middle" dominant-baseline="text-before-edge" transform="translate(0,0)"/></g><g id="" transform="translate(300,472.5)"><text x="0" y="0" text-anchor="middle" dominant-baseline="text-before-edge" transform="translate(0,0)"/></g><g id="" transform="translate(675,472.5)"><text x="0" y="0" text-anchor="middle" dominant-baseline="text-before-edge" transform="translate(0,0)"/></g><g id="" transform="translate(374.9999569044595,472.49990795753854)"><text x="0" y="0" text-anchor="middle" dominant-baseline="text-before-edge" transform="translate(0,0)"/></g><g id="" transform="translate(364.2785371894563,478.9265057584546)"><text x="0" y="0" text-anchor="middle" dominant-baseline="text-before-edge" transform="translate(0,0)"/></g></g></g></g></g></svg>